<svg xmlns="http://www.w3.org/2000/svg" viewBox="0 0 24 24" fill="none"><path d="M12 3v1m0 16v1m-7.07-2.93l.71-.71m12.02-12.02l.71-.71M3 12h1m16 0h1m-2.93 7.07l-.71-.71M5.64 5.64l-.71-.71" stroke="#A78BFA" stroke-width="1.5" stroke-linecap="round"/><circle cx="12" cy="12" r="4" stroke="#A78BFA" stroke-width="2"/><circle cx="12" cy="12" r="1.5" fill="#A78BFA"/><path d="M12 8v-1.5M12 17.5V16M8 12H6.5M17.5 12H16M9.17 9.17L8.11 8.11M15.89 15.89l-1.06-1.06M9.17 14.83l-1.06 1.06M15.89 8.11l-1.06 1.06" stroke="#A78BFA" stroke-width="1" stroke-linecap="round" stroke-opacity="0.5"/></svg>
