<svg xmlns="http://www.w3.org/2000/svg" viewBox="0 0 64 64" fill="none">
  <!-- Circular arrows representing change/transformation -->
  <path d="M32 10 A22 22 0 0 1 54 32" stroke="#FC8181" stroke-width="2.5" fill="none" stroke-linecap="round"/>
  <path d="M54 32 A22 22 0 0 1 32 54" stroke="#F6AD55" stroke-width="2.5" fill="none" stroke-linecap="round"/>
  <path d="M32 54 A22 22 0 0 1 10 32" stroke="#68D391" stroke-width="2.5" fill="none" stroke-linecap="round"/>
  <path d="M10 32 A22 22 0 0 1 32 10" stroke="#63B3ED" stroke-width="2.5" fill="none" stroke-linecap="round"/>
  <!-- Arrowheads -->
  <polygon points="32,8 36,14 28,14" fill="#FC8181"/>
  <polygon points="56,32 50,28 50,36" fill="#F6AD55"/>
  <polygon points="32,56 28,50 36,50" fill="#68D391"/>
  <polygon points="8,32 14,36 14,28" fill="#63B3ED"/>
  <!-- Center icon: rising arrow -->
  <path d="M24 40 L32 24 L40 40" stroke="#FC8181" stroke-width="2.5" stroke-linecap="round" stroke-linejoin="round" fill="none"/>
  <line x1="32" y1="24" x2="32" y2="36" stroke="#FC8181" stroke-width="2.5" stroke-linecap="round"/>
</svg>
